<?xml version="1.0" encoding="UTF-8"?>
<svg width="131px" height="45px" viewBox="0 0 131 45" version="1.1" xmlns="http://www.w3.org/2000/svg" xmlns:xlink="http://www.w3.org/1999/xlink">
    <!-- Generator: Sketch 55.1 (78136) - https://sketchapp.com -->
    <title>Group</title>
    <desc>Created with Sketch.</desc>
    <g id="Page-1" stroke="none" stroke-width="1" fill="none" fill-rule="evenodd">
        <g id="Group" transform="translate(-3.000000, -10.000000)">
            <text id="kbh" font-family="RobotoCondensed-Regular, Roboto Condensed" font-size="58" font-style="condensed" font-weight="normal" fill="#000000">
                <tspan x="0" y="54">kbh</tspan>
            </text>
            <path d="M111.967218,53.001541 C116.136965,55.0863784 115.35934,53.8523082 117.887843,49.8042963 C119.911379,46.5638809 122.553183,43.7931098 124.965531,40.893699 C130.631431,34.0849456 141.610284,12.1014895 125.882541,10.0824983 C121.637803,9.5374143 117.351901,11.7469668 114.472082,15.1277959 C111.592263,18.509061 109.973434,22.9290382 109.080877,27.4026517 C108.088876,23.7706479 107.059787,20.0566635 104.972264,17.0024488 C102.884334,13.9482341 99.4905815,11.6340254 95.972523,12.0195088 C90.8201486,12.5842159 87.5172818,18.833495 88.0577065,24.3445124 C88.5981311,29.8550937 91.9217835,34.5755212 95.4793753,38.6021658 C99.8887676,43.5925189 106.095907,50.0663727 111.967218,53.001541" id="Fill-4" fill="#32E8B7"></path>
        </g>
    </g>
</svg>